# xmcd
#
# Track frame offsets: 
#        150
#        11974
#        24047
#        37273
#        49248
#        61909
#        73764
#        88176
#        98933
#        107816
#        113338
#        125111
#        137692
#        151692
#        161287
#        169723
#        178856
#        192608
#        202744
#        214154
#        224877
#        238483
#        246562
#        261534
#        270531
#
# Disc length: 3771 seconds
#
# Revision: 0
# Processed by: cddbd v1.5.2PL0 Copyright (c) Steve Scherf et al.
# Submitted via: ExactAudioCopyFreeDBPlugin 1.0
#
DISCID=810eb919
DTITLE=Willie Nelson - Crazy CD2
DYEAR=2013
DGENRE=Country
TTITLE0=Night Life
TTITLE1=Following Me Around
TTITLE2=I Just Don't Understand
TTITLE3=End Of Understanding
TTITLE4=She's Not For You
TTITLE5=Happiness Lives Next Door
TTITLE6=Will You Remember Mine
TTITLE7=Blame It On The Times
TTITLE8=Why Are You Picking On Me?
TTITLE9=The Ghost
TTITLE10=Is There Something On Your Mind
TTITLE11=Any Old Arms Won't Do
TTITLE12=So Much To Do
TTITLE13=Let's Pretend
TTITLE14=Slow Down Old World
TTITLE15=Right From Wrong
TTITLE16=No Tomorrow In Sight
TTITLE17=Broken Promises
TTITLE18=Suffering In Silence
TTITLE19=I Feel Sorry For Him
TTITLE20=A Moment Isn't Very Long
TTITLE21=Things To Remember
TTITLE22=And So Will You My Love
TTITLE23=Waiting Time
TTITLE24=I'll Stay Around
EXTD=
EXTT0=
EXTT1=
EXTT2=
EXTT3=
EXTT4=
EXTT5=
EXTT6=
EXTT7=
EXTT8=
EXTT9=
EXTT10=
EXTT11=
EXTT12=
EXTT13=
EXTT14=
EXTT15=
EXTT16=
EXTT17=
EXTT18=
EXTT19=
EXTT20=
EXTT21=
EXTT22=
EXTT23=
EXTT24=
PLAYORDER=
